<svg width="80" height="80" viewBox="0 0 80 80" fill="none" xmlns="http://www.w3.org/2000/svg">
<g clip-path="url(#clip0_96_1573)">
<rect width="80" height="80" rx="5" fill="#6947F8"/>
<circle cx="40" cy="32" r="25" fill="#302886" fill-opacity="0.17"/>
<circle cx="40" cy="32" r="34" fill="#302886" fill-opacity="0.17"/>
<circle cx="38" cy="33" r="43" fill="#302886" fill-opacity="0.17"/>
<path d="M41.3645 17.0388C41.2294 17.0716 41.1956 17.1044 41.2632 17.1241C41.3172 17.1504 41.7091 17.2751 42.1348 17.413C43.0672 17.715 44.4658 18.3913 45.3644 18.9756C48.1414 20.7745 49.9251 23.1053 50.4319 25.5739C50.7427 27.1102 50.3575 30.0713 49.6211 31.8374C48.6752 34.0959 47.3441 35.5009 44.2023 37.5296C42.2361 38.8033 41.1686 39.6831 40.4524 40.6154C39.52 41.8366 39.0335 43.3532 39.0335 45.0077C39.0402 45.94 39.1416 46.6097 39.4051 47.3713C39.601 47.9425 40.1145 48.9667 40.2294 48.9995C40.2699 49.0127 40.4524 48.75 40.6348 48.4152C41.0537 47.6273 41.9726 46.7082 42.7631 46.2749C44.2023 45.487 46.0806 45.1719 48.6684 45.29C50.4048 45.3688 51.2089 45.2047 51.6953 44.686C51.817 44.5481 51.9656 44.3249 52.0129 44.187C52.148 43.8128 52.121 43.0315 51.9453 42.4275C51.8643 42.1452 51.8102 41.9088 51.817 41.9022C51.8305 41.8957 52.0129 41.7841 52.2291 41.6593C53.1886 41.1078 53.2629 40.4184 52.4386 39.6109L52.067 39.2432L52.3575 39.171C53.094 38.9872 53.5399 38.7246 53.6142 38.4094C53.7088 37.9958 53.5467 37.5165 53.1277 36.9847C52.9859 36.8074 52.8845 36.6564 52.898 36.6499C52.9115 36.6433 53.3372 36.5579 53.8439 36.4595C54.8507 36.2691 55.5466 36.013 55.8236 35.7176C56.1277 35.4024 56.0669 35.1464 55.4182 33.8858C54.5264 32.1394 54.3507 31.3515 54.2358 28.5349C54.1953 27.6158 54.1345 26.6112 54.0939 26.3027C53.7494 23.5058 52.6345 21.5493 50.2157 19.5205C48.8238 18.3453 46.9657 17.5115 44.905 17.1373C44.2766 17.0191 41.7091 16.9534 41.3645 17.0388Z" fill="url(#paint0_linear_96_1573)"/>
<path d="M39.101 18.3191C38.6618 18.4044 38.2091 18.6539 37.9051 18.9625C37.6686 19.2054 37.3443 19.7898 37.3443 19.9736C37.3375 20.2756 37.297 20.2822 35.9524 20.2362C35.2497 20.2165 34.4389 20.1968 34.1484 20.1968C33.7092 20.1968 33.6146 20.1771 33.5876 20.0786C33.3917 19.5009 33.1282 19.1923 32.6484 18.9756C31.9795 18.6736 31.2836 18.7918 30.7566 19.3105C30.2499 19.7963 30.1012 20.4988 30.3782 21.0832L30.4998 21.3523L29.4526 22.2649C28.8783 22.7705 28.2769 23.2957 28.1148 23.4336L27.8242 23.6765L27.5202 23.4927C27.3513 23.3876 27.0743 23.2629 26.9053 23.2169C26.4932 23.1053 25.7027 23.1578 25.304 23.3285C24.8648 23.5255 24.4054 23.9523 24.1892 24.3922C24.027 24.7073 24 24.8386 24 25.3507C24 25.8497 24.027 26.0007 24.1757 26.3027C24.4189 26.8082 24.6959 27.0971 25.1959 27.3597C25.5946 27.5698 25.6621 27.583 26.2635 27.583C26.9188 27.583 27.108 27.5305 27.6148 27.2087C27.804 27.0906 27.5337 26.8673 30.6012 29.6905L31.1958 30.2354L31.0606 30.5177C30.912 30.8395 30.885 31.3187 31.0066 31.7127C31.1147 32.0738 31.6755 32.6187 32.0471 32.7237C32.662 32.901 33.3511 32.7566 33.7768 32.3626C33.9525 32.1985 33.966 32.1985 34.1349 32.3036C34.2295 32.3626 34.3038 32.3889 34.3038 32.3626C34.3038 32.3298 34.3308 32.3429 34.3579 32.3823C34.4457 32.5005 35.0605 32.8025 35.1349 32.7566C35.1687 32.7369 35.1822 32.7434 35.1619 32.7828C35.1349 32.8222 35.3916 32.9929 35.7159 33.1702L36.3173 33.4919L36.2835 33.9515C36.2362 34.5358 36.4186 34.9888 36.8375 35.3499L37.1213 35.5929L36.3511 37.6938L35.8849 37.7332C34.6146 37.8251 33.939 39.066 34.547 40.1624C34.7092 40.4447 35.1281 40.8058 35.4051 40.8978C35.4727 40.9175 35.4457 41.0882 35.1551 42.5785L35.0741 43.0053L34.7362 43.0775C34.2903 43.176 34.0268 43.3204 33.7836 43.5896C33.4727 43.931 33.3376 44.3446 33.3714 44.8042C33.4187 45.3032 33.5741 45.6118 33.939 45.9269C34.8578 46.7082 36.297 46.3012 36.6416 45.1522C36.8848 44.3446 36.547 43.6224 35.6889 43.1432C35.574 43.0775 35.574 43.0447 35.6754 42.5523C35.7362 42.2634 35.8173 41.8038 35.8646 41.5215L35.9524 41.0225L36.3375 40.9503C37.3105 40.7599 37.8983 39.7948 37.6145 38.8493C37.5267 38.5473 37.2294 38.1403 36.9997 38.009L36.8173 37.9039L37.1956 36.8272L37.5808 35.757H37.8578C38.9186 35.757 39.7361 34.9166 39.6212 33.9384L39.5875 33.6495L40.0739 33.4394C40.3374 33.3146 41.0469 33.0061 41.6482 32.7434L42.7496 32.2576L43.0468 32.5859C43.2158 32.7631 43.5198 32.9929 43.7428 33.098C44.0874 33.2752 44.2022 33.2949 44.7427 33.2949C45.2968 33.2949 45.3981 33.2752 45.8035 33.0783C46.263 32.8616 46.7089 32.4546 46.6278 32.3298C46.6008 32.2904 46.6076 32.2773 46.6481 32.297C46.6886 32.3232 46.79 32.1919 46.8778 31.995C47.1076 31.5026 47.1076 30.6162 46.8711 30.1435C46.6211 29.638 46.1008 29.1718 45.5941 28.9946L45.1684 28.8435L45.209 27.9178C45.263 26.8082 45.3035 26.4997 45.3981 26.4997C45.5671 26.4997 46.1751 26.1648 46.3778 25.9613C46.6819 25.6593 46.817 25.2982 46.817 24.8123C46.8103 23.9194 46.0806 23.2169 45.1481 23.2169C44.8441 23.2169 44.4522 23.322 44.3374 23.4336C44.2901 23.4796 44.1347 23.5452 44.3644 23.4467C44.4319 23.4073 44.4455 23.4205 44.4117 23.473C44.3779 23.5189 44.3171 23.5386 44.263 23.5189C44.2157 23.4992 44.1549 23.5124 44.1347 23.5452C44.0603 23.67 43.9252 23.6109 43.5941 23.3154C43.4049 23.1513 43.236 23.02 43.2158 23.02C43.1955 23.02 43.1009 22.9543 43.0063 22.869C42.9185 22.7902 42.5671 22.5079 42.2225 22.2387C41.878 21.9695 41.6009 21.7331 41.6009 21.7134C41.6009 21.6937 41.6617 21.5099 41.7428 21.3129C41.905 20.8993 41.932 20.2099 41.7969 19.8226C41.432 18.7261 40.2631 18.0762 39.101 18.3191ZM37.3983 21.1619C37.4862 21.4114 37.5605 21.6543 37.5672 21.7134C37.574 21.7725 37.0402 22.2584 36.2294 22.9149C35.4862 23.5255 34.8173 24.077 34.7362 24.1492C34.5943 24.2674 34.5876 24.2674 34.2633 24.1033C34.0808 24.0179 33.77 23.9194 33.5673 23.8932L33.1957 23.8407L33.0741 23.4467C33.0065 23.2301 32.8849 22.8033 32.8106 22.5013C32.6755 22.0023 32.6755 21.9498 32.7701 21.8973C33.1282 21.7003 33.4525 21.2801 33.5876 20.8337C33.6214 20.7286 33.77 20.7221 35.4322 20.7221H37.2429L37.3983 21.1619ZM31.135 21.9038C31.2836 21.9826 31.5741 22.0614 31.7836 22.0877L32.1687 22.1336L32.4187 22.9543C32.5606 23.4073 32.6755 23.8341 32.6755 23.9129C32.6822 23.9917 32.5809 24.1164 32.412 24.2411C32.2633 24.3462 32.1417 24.4512 32.1417 24.4775C32.1417 24.5038 32.0876 24.5891 32.0268 24.6613C31.9593 24.7336 31.8714 24.8911 31.8309 25.0093L31.7566 25.2194L30.8512 25.2128C30.3512 25.2063 29.635 25.1997 29.2634 25.1997L28.581 25.1866L28.5404 24.9371C28.5134 24.7992 28.4256 24.5497 28.3377 24.379L28.1756 24.0704L29.4864 22.9215C30.2093 22.2912 30.8106 21.7725 30.8309 21.7725C30.8512 21.7725 30.9863 21.8316 31.135 21.9038ZM42.682 23.2498C43.182 23.6371 43.6076 23.972 43.6212 23.9851C43.6414 23.9982 43.6144 24.1164 43.5603 24.2543C43.513 24.3856 43.4725 24.681 43.4725 24.9043C43.4725 25.1341 43.4455 25.3376 43.3982 25.3704C43.3576 25.3967 42.7225 25.6987 41.9861 26.0335L40.6415 26.6375L40.3577 26.3815C40.1956 26.2371 39.9523 26.086 39.8104 26.0401L39.5537 25.9613L39.601 25.0947C39.6212 24.6219 39.6618 23.9063 39.6888 23.4992L39.7294 22.7639L39.9929 22.7245C40.2901 22.672 41.0063 22.3437 41.128 22.1993C41.2023 22.1139 41.2496 22.1271 41.4928 22.3175C41.6415 22.4356 42.182 22.8558 42.682 23.2498ZM38.3037 22.3634C38.4591 22.475 38.7159 22.5998 38.878 22.6392C39.0402 22.6786 39.1821 22.7245 39.1956 22.7508C39.2091 22.7705 39.1821 23.4861 39.128 24.3331C39.0807 25.18 39.0402 25.8956 39.0334 25.9219C39.0334 25.9547 38.9726 25.9744 38.8983 25.9744C38.6551 25.9744 38.1551 26.2502 37.9253 26.5128L37.6956 26.7754L36.4186 26.3224L35.1484 25.8759L35.1078 25.4492C35.0876 25.2128 35.0335 24.9568 34.993 24.878C34.9457 24.7992 34.9119 24.7204 34.9119 24.7007C34.9119 24.681 35.297 24.3528 35.7767 23.9654C36.2497 23.578 36.6956 23.2038 36.77 23.1381C37.0402 22.9018 37.9591 22.1665 37.9929 22.1665C38.0064 22.1665 38.1483 22.2584 38.3037 22.3634ZM31.5674 25.7446C31.7431 25.7709 31.7904 25.8169 31.8512 26.0598C31.9525 26.4143 32.3241 26.8345 32.6822 26.9921C32.9187 27.0971 32.9525 27.1365 32.9255 27.281C32.9052 27.3729 32.8241 27.9112 32.743 28.4824L32.5944 29.5067L32.3106 29.5461C32.162 29.5723 31.9322 29.6511 31.8106 29.7233C31.5944 29.8481 31.5809 29.8481 31.4458 29.7365C31.2701 29.592 28.1553 26.7557 28.1553 26.7426C28.1553 26.736 28.2296 26.585 28.3242 26.4078C28.4188 26.2305 28.4931 26.0401 28.4931 25.9941C28.4931 25.9416 28.5202 25.8497 28.5539 25.7906C28.608 25.6921 28.7566 25.679 29.9931 25.6987C30.7431 25.7052 31.4593 25.7249 31.5674 25.7446ZM44.209 26.2239C44.3171 26.2961 44.4995 26.3815 44.6009 26.4078L44.79 26.4537L44.7495 27.3138C44.6752 28.7385 44.6549 28.8632 44.4657 28.8632C44.1752 28.8632 43.5806 29.1259 43.2698 29.395L42.959 29.6511L41.8712 28.9617C40.8104 28.292 40.7766 28.2592 40.8307 28.0885C40.8577 27.99 40.8847 27.7274 40.8847 27.5042L40.8915 27.0906L43.7293 25.7775L43.8644 25.9285C43.9387 26.0138 44.0941 26.1451 44.209 26.2239ZM36.2835 26.8082L37.547 27.2547V27.6158C37.547 28.0623 37.7835 28.5941 38.074 28.7976C38.1889 28.8764 38.297 28.942 38.3172 28.9355C38.3443 28.9289 38.4253 28.9814 38.4997 29.0536L38.6415 29.185L38.324 30.8132C38.1483 31.7061 37.9997 32.448 37.9997 32.448C37.9929 32.4546 37.8578 32.4743 37.6956 32.4808L37.4051 32.5071L36.9456 31.6536C36.6956 31.1809 36.0335 29.9269 35.4727 28.8501L34.4525 26.9067L34.6957 26.6375C34.8376 26.4931 34.9592 26.3684 34.9795 26.3684C34.9997 26.3684 35.5808 26.5653 36.2835 26.8082ZM34.6889 28.4693C35.0605 29.1718 35.7227 30.4258 36.1619 31.2531L36.9524 32.75L36.6146 33.0783L35.4254 32.4349L34.2362 31.7849L34.2768 31.3844C34.3511 30.6622 34.0065 30.0056 33.3984 29.7168C33.1214 29.5854 33.1011 29.5657 33.1282 29.3688C33.1484 29.2506 33.2295 28.7122 33.3106 28.1739L33.4592 27.189L33.6957 27.1497C33.8241 27.13 33.9525 27.13 33.9727 27.1497C33.9998 27.1693 34.3173 27.7668 34.6889 28.4693ZM41.8374 29.5395C42.2833 29.8218 42.655 30.0647 42.6617 30.0713C42.6752 30.0844 42.6347 30.2289 42.5739 30.3996C42.4928 30.6228 42.4725 30.8657 42.4928 31.2596L42.5198 31.8111L40.9658 32.494L39.405 33.1768L39.074 32.8944C38.8983 32.7369 38.7091 32.6056 38.6618 32.6056C38.6078 32.6056 38.5537 32.5793 38.5334 32.553C38.5132 32.5202 38.6145 31.9228 38.7564 31.2202C38.905 30.5177 39.0402 29.8152 39.0672 29.6511C39.128 29.2769 39.2023 29.1915 39.4591 29.1915C39.7023 29.1915 40.182 28.9814 40.351 28.7976C40.4861 28.6531 40.3847 28.6072 41.8374 29.5395Z" fill="url(#paint1_linear_96_1573)"/>
<rect x="-4" y="64" width="88" height="22" rx="5" fill="#503AC8"/>
<path d="M18 75.8807V68H19.4335V71.621H19.5301L22.6174 68H24.3678L21.3076 71.5363L24.3949 75.8807H22.6715L20.3107 72.5022L19.4335 73.5334V75.8807H18Z" fill="white"/>
<path d="M27.0098 76C26.6337 76 26.295 75.9333 25.9936 75.7999C25.6948 75.6639 25.4578 75.4638 25.2826 75.1996C25.11 74.9354 25.0237 74.6096 25.0237 74.2222C25.0237 73.8887 25.0856 73.613 25.2092 73.3949C25.3329 73.1768 25.5016 73.0024 25.7154 72.8716C25.9292 72.7407 26.17 72.642 26.4379 72.5753C26.7084 72.506 26.9879 72.456 27.2764 72.4252C27.6242 72.3893 27.9063 72.3572 28.1226 72.329C28.339 72.2982 28.4962 72.252 28.594 72.1905C28.6945 72.1263 28.7447 72.0276 28.7447 71.8942V71.8711C28.7447 71.5812 28.6584 71.3567 28.4859 71.1977C28.3133 71.0386 28.0647 70.9591 27.7401 70.9591C27.3975 70.9591 27.1257 71.0335 26.9248 71.1823C26.7265 71.3311 26.5925 71.5068 26.523 71.7095L25.2169 71.5248C25.32 71.1656 25.49 70.8655 25.727 70.6243C25.964 70.3806 26.2538 70.1985 26.5964 70.0779C26.939 69.9548 27.3176 69.8932 27.7324 69.8932C28.0183 69.8932 28.303 69.9266 28.5863 69.9933C28.8697 70.06 29.1286 70.1703 29.363 70.3242C29.5974 70.4755 29.7854 70.6821 29.9271 70.9437C30.0714 71.2054 30.1435 71.5325 30.1435 71.925V75.8807H28.7988V75.0688H28.7525C28.6675 75.233 28.5477 75.3869 28.3931 75.5305C28.2411 75.6716 28.0492 75.7858 27.8174 75.873C27.5881 75.9577 27.3189 76 27.0098 76ZM27.373 74.9764C27.6538 74.9764 27.8972 74.9213 28.1033 74.811C28.3094 74.6981 28.4678 74.5493 28.5786 74.3646C28.6919 74.1799 28.7486 73.9785 28.7486 73.7605V73.064C28.7048 73.0999 28.6301 73.1332 28.5245 73.164C28.4215 73.1948 28.3055 73.2217 28.1767 73.2448C28.0479 73.2679 27.9204 73.2884 27.7942 73.3064C27.668 73.3244 27.5585 73.3397 27.4658 73.3526C27.2571 73.3808 27.0703 73.427 26.9055 73.4911C26.7406 73.5552 26.6105 73.645 26.5152 73.7605C26.4199 73.8733 26.3723 74.0196 26.3723 74.1991C26.3723 74.4557 26.4663 74.6494 26.6543 74.7802C26.8424 74.911 27.0819 74.9764 27.373 74.9764Z" fill="white"/>
<path d="M32.9487 72.4175V75.8807H31.55V69.9702H32.8869V70.9745H32.9565C33.093 70.6436 33.3107 70.3806 33.6095 70.1857C33.9109 69.9907 34.2831 69.8932 34.7262 69.8932C35.1357 69.8932 35.4925 69.9804 35.7965 70.1549C36.103 70.3293 36.34 70.582 36.5075 70.9129C36.6775 71.2439 36.7612 71.6453 36.7586 72.1174V75.8807H35.3599V72.3329C35.3599 71.9378 35.2568 71.6287 35.0507 71.4055C34.8472 71.1823 34.5652 71.0707 34.2045 71.0707C33.9598 71.0707 33.7421 71.1246 33.5515 71.2323C33.3635 71.3375 33.2154 71.4901 33.1072 71.6902C33.0015 71.8903 32.9487 72.1328 32.9487 72.4175Z" fill="white"/>
<path d="M39.8884 76C39.5123 76 39.1736 75.9333 38.8722 75.7999C38.5734 75.6639 38.3364 75.4638 38.1612 75.1996C37.9886 74.9354 37.9023 74.6096 37.9023 74.2222C37.9023 73.8887 37.9642 73.613 38.0878 73.3949C38.2115 73.1768 38.3802 73.0024 38.594 72.8716C38.8078 72.7407 39.0487 72.642 39.3166 72.5753C39.587 72.506 39.8665 72.456 40.155 72.4252C40.5028 72.3893 40.7849 72.3572 41.0013 72.329C41.2176 72.2982 41.3748 72.252 41.4727 72.1905C41.5731 72.1263 41.6234 72.0276 41.6234 71.8942V71.8711C41.6234 71.5812 41.5371 71.3567 41.3645 71.1977C41.1919 71.0386 40.9433 70.9591 40.6187 70.9591C40.2761 70.9591 40.0043 71.0335 39.8034 71.1823C39.6051 71.3311 39.4711 71.5068 39.4016 71.7095L38.0955 71.5248C38.1986 71.1656 38.3686 70.8655 38.6056 70.6243C38.8426 70.3806 39.1324 70.1985 39.475 70.0779C39.8176 69.9548 40.1963 69.8932 40.611 69.8932C40.8969 69.8932 41.1816 69.9266 41.4649 69.9933C41.7483 70.06 42.0072 70.1703 42.2416 70.3242C42.476 70.4755 42.664 70.6821 42.8057 70.9437C42.95 71.2054 43.0221 71.5325 43.0221 71.925V75.8807H41.6774V75.0688H41.6311C41.5461 75.233 41.4263 75.3869 41.2717 75.5305C41.1197 75.6716 40.9278 75.7858 40.696 75.873C40.4667 75.9577 40.1975 76 39.8884 76ZM40.2516 74.9764C40.5324 74.9764 40.7759 74.9213 40.9819 74.811C41.188 74.6981 41.3464 74.5493 41.4572 74.3646C41.5705 74.1799 41.6272 73.9785 41.6272 73.7605V73.064C41.5834 73.0999 41.5087 73.1332 41.4031 73.164C41.3001 73.1948 41.1841 73.2217 41.0553 73.2448C40.9265 73.2679 40.799 73.2884 40.6728 73.3064C40.5466 73.3244 40.4371 73.3397 40.3444 73.3526C40.1357 73.3808 39.949 73.427 39.7841 73.4911C39.6192 73.5552 39.4892 73.645 39.3938 73.7605C39.2985 73.8733 39.2509 74.0196 39.2509 74.1991C39.2509 74.4557 39.3449 74.6494 39.5329 74.7802C39.721 74.911 39.9606 74.9764 40.2516 74.9764Z" fill="white"/>
<path d="M45.7037 74.026L45.6998 72.3444H45.924L48.0569 69.9702H49.6913L47.0677 72.8793H46.7779L45.7037 74.026ZM44.4286 75.8807V68H45.8274V75.8807H44.4286ZM48.1535 75.8807L46.2215 73.191L47.1643 72.2097L49.8266 75.8807H48.1535Z" fill="white"/>
<path d="M51.8986 74.026L51.8948 72.3444H52.1189L54.2518 69.9702H55.8862L53.2626 72.8793H52.9728L51.8986 74.026ZM50.6235 75.8807V68H52.0223V75.8807H50.6235ZM54.3484 75.8807L52.4164 73.191L53.3592 72.2097L56.0215 75.8807H54.3484Z" fill="white"/>
<path d="M60.6012 73.3949V69.9702H62V75.8807H60.6437V74.8302H60.5819C60.448 75.1611 60.2277 75.4318 59.9212 75.6421C59.6172 75.8525 59.2424 75.9577 58.7968 75.9577C58.4078 75.9577 58.0639 75.8717 57.7651 75.6999C57.4689 75.5254 57.237 75.2727 57.0696 74.9418C56.9021 74.6083 56.8184 74.2055 56.8184 73.7335V69.9702H58.2172V73.518C58.2172 73.8926 58.3202 74.1902 58.5263 74.4108C58.7324 74.6314 59.0028 74.7417 59.3377 74.7417C59.5438 74.7417 59.7434 74.6917 59.9366 74.5916C60.1298 74.4916 60.2883 74.3428 60.4119 74.1453C60.5381 73.9452 60.6012 73.695 60.6012 73.3949Z" fill="white"/>
</g>
<defs>
<linearGradient id="paint0_linear_96_1573" x1="29.7626" y1="41.3918" x2="37.5771" y2="18.9841" gradientUnits="userSpaceOnUse">
<stop stop-color="white"/>
<stop offset="1" stop-color="white"/>
</linearGradient>
<linearGradient id="paint1_linear_96_1573" x1="29.7626" y1="41.3918" x2="37.5771" y2="18.9841" gradientUnits="userSpaceOnUse">
<stop stop-color="white"/>
<stop offset="1" stop-color="white"/>
</linearGradient>
<clipPath id="clip0_96_1573">
<rect width="80" height="80" rx="5" fill="white"/>
</clipPath>
</defs>
</svg>
